<mxfile host="app.diagrams.net" modified="2021-05-11T13:50:04.788Z" agent="5.0 (Windows NT 10.0; Win64; x64) AppleWebKit/537.36 (KHTML, like Gecko) Chrome/90.0.4430.93 Safari/537.36" etag="BuJfS5r0r-HIBqV7wB2n" version="14.6.11" type="github">
  <diagram id="C5RBs43oDa-KdzZeNtuy" name="Page-1">
    <mxGraphModel dx="1022" dy="436" grid="1" gridSize="10" guides="1" tooltips="1" connect="1" arrows="1" fold="1" page="1" pageScale="1" pageWidth="827" pageHeight="1169" math="0" shadow="0">
      <root>
        <mxCell id="WIyWlLk6GJQsqaUBKTNV-0" />
        <mxCell id="WIyWlLk6GJQsqaUBKTNV-1" parent="WIyWlLk6GJQsqaUBKTNV-0" />
        <mxCell id="fIqPK13ThxbJ5xYCtsDk-0" value="start" style="rounded=1;whiteSpace=wrap;html=1;fontSize=16;glass=0;strokeWidth=1;shadow=0;" parent="WIyWlLk6GJQsqaUBKTNV-1" vertex="1">
          <mxGeometry x="340" y="130" width="60" height="40" as="geometry" />
        </mxCell>
        <mxCell id="fIqPK13ThxbJ5xYCtsDk-1" value="Yes" style="rounded=0;html=1;jettySize=auto;orthogonalLoop=1;fontSize=16;endArrow=block;endFill=0;endSize=8;strokeWidth=1;shadow=0;labelBackgroundColor=none;edgeStyle=orthogonalEdgeStyle;" parent="WIyWlLk6GJQsqaUBKTNV-1" source="fIqPK13ThxbJ5xYCtsDk-3" target="fIqPK13ThxbJ5xYCtsDk-7" edge="1">
          <mxGeometry y="20" relative="1" as="geometry">
            <mxPoint as="offset" />
          </mxGeometry>
        </mxCell>
        <mxCell id="fIqPK13ThxbJ5xYCtsDk-2" value="No" style="edgeStyle=orthogonalEdgeStyle;rounded=0;html=1;jettySize=auto;orthogonalLoop=1;fontSize=16;endArrow=block;endFill=0;endSize=8;strokeWidth=1;shadow=0;labelBackgroundColor=none;" parent="WIyWlLk6GJQsqaUBKTNV-1" source="fIqPK13ThxbJ5xYCtsDk-3" target="fIqPK13ThxbJ5xYCtsDk-4" edge="1">
          <mxGeometry y="10" relative="1" as="geometry">
            <mxPoint as="offset" />
          </mxGeometry>
        </mxCell>
        <mxCell id="fIqPK13ThxbJ5xYCtsDk-3" value="delta &amp;gt;= 0" style="rhombus;whiteSpace=wrap;html=1;shadow=0;fontFamily=Helvetica;fontSize=16;align=center;strokeWidth=1;spacing=6;spacingTop=-4;" parent="WIyWlLk6GJQsqaUBKTNV-1" vertex="1">
          <mxGeometry x="290" y="310" width="160" height="50" as="geometry" />
        </mxCell>
        <mxCell id="fIqPK13ThxbJ5xYCtsDk-4" value="&lt;div style=&quot;background-color: rgb(255 , 255 , 255) ; font-family: &amp;#34;consolas&amp;#34; , &amp;#34;courier new&amp;#34; , monospace ; font-size: 14px ; line-height: 19px&quot;&gt;&lt;span style=&quot;color: #001080&quot;&gt;solution&lt;/span&gt;&amp;nbsp;=&amp;nbsp;&lt;span style=&quot;color: #a31515&quot;&gt;&quot;方程没有实数根&quot;&lt;/span&gt;;&lt;/div&gt;" style="rounded=0;whiteSpace=wrap;html=1;fontSize=16;glass=0;strokeWidth=1;shadow=0;" parent="WIyWlLk6GJQsqaUBKTNV-1" vertex="1">
          <mxGeometry x="560" y="315" width="230" height="40" as="geometry" />
        </mxCell>
        <mxCell id="fIqPK13ThxbJ5xYCtsDk-5" value="No" style="rounded=0;html=1;jettySize=auto;orthogonalLoop=1;fontSize=16;endArrow=block;endFill=0;endSize=8;strokeWidth=1;shadow=0;labelBackgroundColor=none;edgeStyle=orthogonalEdgeStyle;entryX=0.5;entryY=0;entryDx=0;entryDy=0;exitX=1;exitY=0.5;exitDx=0;exitDy=0;" parent="WIyWlLk6GJQsqaUBKTNV-1" source="fIqPK13ThxbJ5xYCtsDk-7" target="fIqPK13ThxbJ5xYCtsDk-8" edge="1">
          <mxGeometry x="-0.3296" y="15" relative="1" as="geometry">
            <mxPoint as="offset" />
            <mxPoint x="520" y="415" as="targetPoint" />
          </mxGeometry>
        </mxCell>
        <mxCell id="fIqPK13ThxbJ5xYCtsDk-6" value="Yes&lt;br&gt;" style="edgeStyle=orthogonalEdgeStyle;rounded=0;html=1;jettySize=auto;orthogonalLoop=1;fontSize=16;endArrow=block;endFill=0;endSize=8;strokeWidth=1;shadow=0;labelBackgroundColor=none;exitX=0;exitY=0.5;exitDx=0;exitDy=0;" parent="WIyWlLk6GJQsqaUBKTNV-1" source="fIqPK13ThxbJ5xYCtsDk-7" target="fIqPK13ThxbJ5xYCtsDk-9" edge="1">
          <mxGeometry x="-0.3939" y="-15" relative="1" as="geometry">
            <mxPoint as="offset" />
          </mxGeometry>
        </mxCell>
        <mxCell id="fIqPK13ThxbJ5xYCtsDk-7" value="delta == 0" style="rhombus;whiteSpace=wrap;html=1;shadow=0;fontFamily=Helvetica;fontSize=16;align=center;strokeWidth=1;spacing=6;spacingTop=-4;" parent="WIyWlLk6GJQsqaUBKTNV-1" vertex="1">
          <mxGeometry x="280" y="390" width="180" height="50" as="geometry" />
        </mxCell>
        <mxCell id="fIqPK13ThxbJ5xYCtsDk-8" value="&lt;div style=&quot;background-color: rgb(255 , 255 , 255) ; font-family: &amp;#34;consolas&amp;#34; , &amp;#34;courier new&amp;#34; , monospace ; font-size: 14px ; line-height: 19px&quot;&gt;&lt;div style=&quot;font-family: &amp;#34;consolas&amp;#34; , &amp;#34;courier new&amp;#34; , monospace ; line-height: 19px&quot;&gt;&lt;span style=&quot;color: #001080&quot;&gt;x1&lt;/span&gt;&amp;nbsp;=&amp;nbsp;(-&lt;span style=&quot;color: #001080&quot;&gt;b&lt;/span&gt;+&lt;span style=&quot;color: #267f99&quot;&gt;Math&lt;/span&gt;.&lt;span style=&quot;color: #795e26&quot;&gt;sqrt&lt;/span&gt;(&lt;span style=&quot;color: #001080&quot;&gt;delta&lt;/span&gt;))/(&lt;span style=&quot;color: #098658&quot;&gt;2&lt;/span&gt;*&lt;span style=&quot;color: #001080&quot;&gt;a&lt;/span&gt;);&lt;/div&gt;&lt;div style=&quot;font-family: &amp;#34;consolas&amp;#34; , &amp;#34;courier new&amp;#34; , monospace ; line-height: 19px&quot;&gt;&lt;div style=&quot;font-family: &amp;#34;consolas&amp;#34; , &amp;#34;courier new&amp;#34; , monospace ; line-height: 19px&quot;&gt;&lt;span style=&quot;color: #001080&quot;&gt;x2&lt;/span&gt;&amp;nbsp;=&amp;nbsp;(-&lt;span style=&quot;color: #001080&quot;&gt;b&lt;/span&gt;-&lt;span style=&quot;color: #267f99&quot;&gt;Math&lt;/span&gt;.&lt;span style=&quot;color: #795e26&quot;&gt;sqrt&lt;/span&gt;(&lt;span style=&quot;color: #001080&quot;&gt;delta&lt;/span&gt;))/(&lt;span style=&quot;color: #098658&quot;&gt;2&lt;/span&gt;*&lt;span style=&quot;color: #001080&quot;&gt;a&lt;/span&gt;);&lt;/div&gt;&lt;div style=&quot;font-family: &amp;#34;consolas&amp;#34; , &amp;#34;courier new&amp;#34; , monospace ; line-height: 19px&quot;&gt;&lt;div style=&quot;font-family: &amp;#34;consolas&amp;#34; , &amp;#34;courier new&amp;#34; , monospace ; line-height: 19px&quot;&gt;&lt;span style=&quot;color: #001080&quot;&gt;solution&lt;/span&gt;&amp;nbsp;=&amp;nbsp;&lt;span style=&quot;color: #a31515&quot;&gt;&quot;方程有两个实数根：x1=&quot;&lt;/span&gt;&amp;nbsp;+&amp;nbsp;&lt;span style=&quot;color: #795e26&quot;&gt;format&lt;/span&gt;(&lt;span style=&quot;color: #001080&quot;&gt;x1&lt;/span&gt;)&amp;nbsp;+&amp;nbsp;&lt;span style=&quot;color: #a31515&quot;&gt;&quot;,&amp;nbsp;x2=&quot;&lt;/span&gt;&amp;nbsp;+&amp;nbsp;&lt;span style=&quot;color: #795e26&quot;&gt;format&lt;/span&gt;(&lt;span style=&quot;color: #001080&quot;&gt;x2&lt;/span&gt;);&lt;/div&gt;&lt;/div&gt;&lt;/div&gt;&lt;/div&gt;" style="rounded=0;whiteSpace=wrap;html=1;fontSize=16;glass=0;strokeWidth=1;shadow=0;" parent="WIyWlLk6GJQsqaUBKTNV-1" vertex="1">
          <mxGeometry x="400" y="470" width="340" height="80" as="geometry" />
        </mxCell>
        <mxCell id="fIqPK13ThxbJ5xYCtsDk-9" value="&lt;div style=&quot;background-color: rgb(255 , 255 , 255) ; font-family: &amp;#34;consolas&amp;#34; , &amp;#34;courier new&amp;#34; , monospace ; font-size: 14px ; line-height: 19px&quot;&gt;&lt;div style=&quot;font-family: &amp;#34;consolas&amp;#34; , &amp;#34;courier new&amp;#34; , monospace ; line-height: 19px&quot;&gt;&lt;div&gt;&lt;span style=&quot;color: #001080&quot;&gt;x1&lt;/span&gt;&amp;nbsp;=&amp;nbsp;-&lt;span style=&quot;color: #001080&quot;&gt;b&lt;/span&gt;/(&lt;span style=&quot;color: #098658&quot;&gt;2&lt;/span&gt;*&lt;span style=&quot;color: #001080&quot;&gt;a&lt;/span&gt;);&lt;/div&gt;&lt;div&gt;&lt;span style=&quot;color: rgb(0 , 16 , 128)&quot;&gt;solution&lt;/span&gt;&amp;nbsp;=&amp;nbsp;&lt;span style=&quot;color: rgb(163 , 21 , 21)&quot;&gt;&quot;方程有一个实数根：x1=x2=&quot;&lt;/span&gt;&amp;nbsp;+&amp;nbsp;&lt;span style=&quot;color: rgb(121 , 94 , 38)&quot;&gt;format&lt;/span&gt;(&lt;span style=&quot;color: rgb(0 , 16 , 128)&quot;&gt;x1&lt;/span&gt;);&lt;/div&gt;&lt;/div&gt;&lt;/div&gt;" style="rounded=0;whiteSpace=wrap;html=1;fontSize=16;glass=0;strokeWidth=1;shadow=0;" parent="WIyWlLk6GJQsqaUBKTNV-1" vertex="1">
          <mxGeometry x="20" y="470" width="310" height="80" as="geometry" />
        </mxCell>
        <mxCell id="fIqPK13ThxbJ5xYCtsDk-12" value="&lt;div style=&quot;background-color: rgb(255 , 255 , 255) ; font-family: &amp;#34;consolas&amp;#34; , &amp;#34;courier new&amp;#34; , monospace ; font-size: 14px ; line-height: 19px&quot;&gt;&lt;font color=&quot;#001080&quot;&gt;output solution&lt;/font&gt;&lt;/div&gt;" style="rounded=0;whiteSpace=wrap;html=1;fontSize=16;glass=0;strokeWidth=1;shadow=0;" parent="WIyWlLk6GJQsqaUBKTNV-1" vertex="1">
          <mxGeometry x="270" y="584.5" width="200" height="40" as="geometry" />
        </mxCell>
        <mxCell id="fIqPK13ThxbJ5xYCtsDk-28" value="" style="rounded=0;html=1;jettySize=auto;orthogonalLoop=1;fontSize=16;endArrow=block;endFill=0;endSize=8;strokeWidth=1;shadow=0;labelBackgroundColor=none;edgeStyle=orthogonalEdgeStyle;exitX=0.5;exitY=1;exitDx=0;exitDy=0;entryX=0.5;entryY=0;entryDx=0;entryDy=0;" parent="WIyWlLk6GJQsqaUBKTNV-1" source="fIqPK13ThxbJ5xYCtsDk-0" target="fIqPK13ThxbJ5xYCtsDk-48" edge="1">
          <mxGeometry y="20" relative="1" as="geometry">
            <mxPoint as="offset" />
            <mxPoint x="380" y="180" as="sourcePoint" />
            <mxPoint x="370" y="140" as="targetPoint" />
          </mxGeometry>
        </mxCell>
        <mxCell id="fIqPK13ThxbJ5xYCtsDk-30" value="" style="rounded=0;html=1;jettySize=auto;orthogonalLoop=1;fontSize=16;endArrow=block;endFill=0;endSize=8;strokeWidth=1;shadow=0;labelBackgroundColor=none;edgeStyle=orthogonalEdgeStyle;exitX=0.5;exitY=1;exitDx=0;exitDy=0;entryX=1;entryY=0.5;entryDx=0;entryDy=0;" parent="WIyWlLk6GJQsqaUBKTNV-1" source="fIqPK13ThxbJ5xYCtsDk-8" target="fIqPK13ThxbJ5xYCtsDk-12" edge="1">
          <mxGeometry y="20" relative="1" as="geometry">
            <mxPoint as="offset" />
            <mxPoint x="730" y="460" as="sourcePoint" />
            <mxPoint x="730" y="675" as="targetPoint" />
          </mxGeometry>
        </mxCell>
        <mxCell id="fIqPK13ThxbJ5xYCtsDk-31" value="" style="rounded=0;html=1;jettySize=auto;orthogonalLoop=1;fontSize=16;endArrow=block;endFill=0;endSize=8;strokeWidth=1;shadow=0;labelBackgroundColor=none;edgeStyle=orthogonalEdgeStyle;entryX=0;entryY=0.5;entryDx=0;entryDy=0;exitX=0.5;exitY=1;exitDx=0;exitDy=0;" parent="WIyWlLk6GJQsqaUBKTNV-1" source="fIqPK13ThxbJ5xYCtsDk-9" target="fIqPK13ThxbJ5xYCtsDk-12" edge="1">
          <mxGeometry y="20" relative="1" as="geometry">
            <mxPoint as="offset" />
            <mxPoint x="740" y="470" as="sourcePoint" />
            <mxPoint x="740" y="685" as="targetPoint" />
          </mxGeometry>
        </mxCell>
        <mxCell id="fIqPK13ThxbJ5xYCtsDk-48" value="&lt;div style=&quot;background-color: rgb(255 , 255 , 255) ; font-family: &amp;#34;consolas&amp;#34; , &amp;#34;courier new&amp;#34; , monospace ; font-size: 14px ; line-height: 19px&quot;&gt;&lt;div style=&quot;font-family: &amp;#34;consolas&amp;#34; , &amp;#34;courier new&amp;#34; , monospace ; line-height: 19px&quot;&gt;&lt;div&gt;&lt;span style=&quot;font-family: &amp;#34;helvetica&amp;#34; ; font-size: 16px ; background-color: rgb(248 , 249 , 250)&quot;&gt;input a,b,c&lt;/span&gt;&lt;span style=&quot;color: #267f99&quot;&gt;&lt;br&gt;&lt;/span&gt;&lt;/div&gt;&lt;div&gt;&lt;span style=&quot;color: #267f99&quot;&gt;String&lt;/span&gt;&amp;nbsp;&lt;span style=&quot;color: #001080&quot;&gt;solution&lt;/span&gt;;&lt;/div&gt;&lt;div&gt;&lt;span style=&quot;color: rgb(38 , 127 , 153)&quot;&gt;double&lt;/span&gt;&amp;nbsp;&lt;span style=&quot;color: rgb(0 , 16 , 128)&quot;&gt;delta&lt;/span&gt;&amp;nbsp;=&amp;nbsp;&lt;span style=&quot;color: rgb(0 , 16 , 128)&quot;&gt;b&lt;/span&gt;*&lt;span style=&quot;color: rgb(0 , 16 , 128)&quot;&gt;b&lt;/span&gt;&amp;nbsp;-&amp;nbsp;&lt;span style=&quot;color: rgb(9 , 134 , 88)&quot;&gt;4&lt;/span&gt;*&lt;span style=&quot;color: rgb(0 , 16 , 128)&quot;&gt;a&lt;/span&gt;*&lt;span style=&quot;color: rgb(0 , 16 , 128)&quot;&gt;c&lt;/span&gt;;&lt;/div&gt;&lt;div&gt;&lt;span style=&quot;color: rgb(38 , 127 , 153)&quot;&gt;double&lt;/span&gt;&amp;nbsp;&lt;span style=&quot;color: rgb(0 , 16 , 128)&quot;&gt;x1&lt;/span&gt;,&amp;nbsp;&lt;span style=&quot;color: rgb(0 , 16 , 128)&quot;&gt;x2&lt;/span&gt;;&lt;/div&gt;&lt;/div&gt;&lt;/div&gt;" style="rounded=0;whiteSpace=wrap;html=1;fontSize=16;glass=0;strokeWidth=1;shadow=0;" parent="WIyWlLk6GJQsqaUBKTNV-1" vertex="1">
          <mxGeometry x="185" y="200" width="370" height="80" as="geometry" />
        </mxCell>
        <mxCell id="fIqPK13ThxbJ5xYCtsDk-49" value="" style="rounded=0;html=1;jettySize=auto;orthogonalLoop=1;fontSize=16;endArrow=block;endFill=0;endSize=8;strokeWidth=1;shadow=0;labelBackgroundColor=none;edgeStyle=orthogonalEdgeStyle;entryX=0.5;entryY=0;entryDx=0;entryDy=0;exitX=0.5;exitY=1;exitDx=0;exitDy=0;" parent="WIyWlLk6GJQsqaUBKTNV-1" source="fIqPK13ThxbJ5xYCtsDk-48" target="fIqPK13ThxbJ5xYCtsDk-3" edge="1">
          <mxGeometry y="20" relative="1" as="geometry">
            <mxPoint as="offset" />
            <mxPoint x="380" y="190" as="sourcePoint" />
            <mxPoint x="380" y="230" as="targetPoint" />
          </mxGeometry>
        </mxCell>
        <mxCell id="fIqPK13ThxbJ5xYCtsDk-50" value="end" style="rounded=1;whiteSpace=wrap;html=1;fontSize=16;glass=0;strokeWidth=1;shadow=0;" parent="WIyWlLk6GJQsqaUBKTNV-1" vertex="1">
          <mxGeometry x="340" y="660" width="60" height="40" as="geometry" />
        </mxCell>
        <mxCell id="fIqPK13ThxbJ5xYCtsDk-52" value="" style="rounded=0;html=1;jettySize=auto;orthogonalLoop=1;fontSize=16;endArrow=block;endFill=0;endSize=8;strokeWidth=1;shadow=0;labelBackgroundColor=none;edgeStyle=orthogonalEdgeStyle;entryX=0.5;entryY=0;entryDx=0;entryDy=0;exitX=0.5;exitY=1;exitDx=0;exitDy=0;" parent="WIyWlLk6GJQsqaUBKTNV-1" source="fIqPK13ThxbJ5xYCtsDk-12" target="fIqPK13ThxbJ5xYCtsDk-50" edge="1">
          <mxGeometry y="20" relative="1" as="geometry">
            <mxPoint as="offset" />
            <mxPoint x="340" y="950" as="sourcePoint" />
            <mxPoint x="390" y="1510" as="targetPoint" />
          </mxGeometry>
        </mxCell>
        <mxCell id="fIqPK13ThxbJ5xYCtsDk-53" value="" style="rounded=0;html=1;jettySize=auto;orthogonalLoop=1;fontSize=16;endArrow=block;endFill=0;endSize=8;strokeWidth=1;shadow=0;labelBackgroundColor=none;edgeStyle=orthogonalEdgeStyle;exitX=1;exitY=0.5;exitDx=0;exitDy=0;entryX=1;entryY=0.5;entryDx=0;entryDy=0;" parent="WIyWlLk6GJQsqaUBKTNV-1" source="fIqPK13ThxbJ5xYCtsDk-4" target="fIqPK13ThxbJ5xYCtsDk-50" edge="1">
          <mxGeometry y="20" relative="1" as="geometry">
            <mxPoint as="offset" />
            <mxPoint x="780" y="230" as="sourcePoint" />
            <mxPoint x="530" y="1074.2857142857142" as="targetPoint" />
            <Array as="points">
              <mxPoint x="800" y="325" />
              <mxPoint x="800" y="680" />
            </Array>
          </mxGeometry>
        </mxCell>
        <mxCell id="I3H7PxXZM_XVZrnDZHrF-0" value="&lt;font color=&quot;#ff0000&quot;&gt;A&lt;/font&gt;" style="text;html=1;align=center;verticalAlign=middle;resizable=0;points=[];autosize=1;strokeColor=none;" vertex="1" parent="WIyWlLk6GJQsqaUBKTNV-1">
          <mxGeometry x="340" y="170" width="20" height="20" as="geometry" />
        </mxCell>
        <mxCell id="I3H7PxXZM_XVZrnDZHrF-1" value="&lt;font color=&quot;#ff0000&quot;&gt;B&lt;/font&gt;" style="text;html=1;align=center;verticalAlign=middle;resizable=0;points=[];autosize=1;strokeColor=none;" vertex="1" parent="WIyWlLk6GJQsqaUBKTNV-1">
          <mxGeometry x="340" y="290" width="20" height="20" as="geometry" />
        </mxCell>
        <mxCell id="I3H7PxXZM_XVZrnDZHrF-2" value="&lt;font color=&quot;#ff0000&quot;&gt;C&lt;/font&gt;" style="text;html=1;align=center;verticalAlign=middle;resizable=0;points=[];autosize=1;strokeColor=none;" vertex="1" parent="WIyWlLk6GJQsqaUBKTNV-1">
          <mxGeometry x="320" y="355" width="20" height="20" as="geometry" />
        </mxCell>
        <mxCell id="I3H7PxXZM_XVZrnDZHrF-3" value="&lt;font color=&quot;#ff0000&quot;&gt;D&lt;/font&gt;" style="text;html=1;align=center;verticalAlign=middle;resizable=0;points=[];autosize=1;strokeColor=none;" vertex="1" parent="WIyWlLk6GJQsqaUBKTNV-1">
          <mxGeometry x="470" y="310" width="20" height="20" as="geometry" />
        </mxCell>
        <mxCell id="I3H7PxXZM_XVZrnDZHrF-4" value="&lt;font color=&quot;#ff0000&quot;&gt;E&lt;/font&gt;" style="text;html=1;align=center;verticalAlign=middle;resizable=0;points=[];autosize=1;strokeColor=none;" vertex="1" parent="WIyWlLk6GJQsqaUBKTNV-1">
          <mxGeometry x="230" y="420" width="20" height="20" as="geometry" />
        </mxCell>
        <mxCell id="I3H7PxXZM_XVZrnDZHrF-5" value="&lt;font color=&quot;#ff0000&quot;&gt;F&lt;/font&gt;" style="text;html=1;align=center;verticalAlign=middle;resizable=0;points=[];autosize=1;strokeColor=none;" vertex="1" parent="WIyWlLk6GJQsqaUBKTNV-1">
          <mxGeometry x="500" y="420" width="20" height="20" as="geometry" />
        </mxCell>
        <mxCell id="I3H7PxXZM_XVZrnDZHrF-6" value="&lt;font color=&quot;#ff0000&quot;&gt;G&lt;/font&gt;" style="text;html=1;align=center;verticalAlign=middle;resizable=0;points=[];autosize=1;strokeColor=none;" vertex="1" parent="WIyWlLk6GJQsqaUBKTNV-1">
          <mxGeometry x="370" y="624.5" width="20" height="20" as="geometry" />
        </mxCell>
      </root>
    </mxGraphModel>
  </diagram>
</mxfile>
